<svg width="750" height="208" viewBox="0 0 750 208" fill="none" xmlns="http://www.w3.org/2000/svg">
<path d="M224.08 84.92C219.36 84.92 214.96 84.28 210.88 83C206.88 81.64 203.36 79.64 200.32 77C197.36 74.36 195 71.04 193.24 67.04C191.56 63.04 190.72 58.36 190.72 53C190.72 47.72 191.56 43.2 193.24 39.44C195 35.6 197.28 32.48 200.08 30.08C202.88 27.6 206.08 25.8 209.68 24.68C213.28 23.48 216.96 22.88 220.72 22.88C224.96 22.88 228.8 23.52 232.24 24.8C235.76 26.08 238.76 27.84 241.24 30.08C243.8 32.32 245.76 35 247.12 38.12C248.56 41.24 249.28 44.64 249.28 48.32C249.28 51.04 248.52 53.12 247 54.56C245.48 56 243.36 56.92 240.64 57.32L211 61.76C211.88 64.4 213.68 66.4 216.4 67.76C219.12 69.04 222.24 69.68 225.76 69.68C229.04 69.68 232.12 69.28 235 68.48C237.96 67.6 240.36 66.6 242.2 65.48C243.48 66.28 244.56 67.4 245.44 68.84C246.32 70.28 246.76 71.8 246.76 73.4C246.76 77 245.08 79.68 241.72 81.44C239.16 82.8 236.28 83.72 233.08 84.2C229.88 84.68 226.88 84.92 224.08 84.92ZM220.72 37.76C218.8 37.76 217.12 38.08 215.68 38.72C214.32 39.36 213.2 40.2 212.32 41.24C211.44 42.2 210.76 43.32 210.28 44.6C209.88 45.8 209.64 47.04 209.56 48.32L230.08 44.96C229.84 43.36 228.96 41.76 227.44 40.16C225.92 38.56 223.68 37.76 220.72 37.76ZM284.059 70.04C285.419 70.04 286.899 69.92 288.499 69.68C290.179 69.36 291.419 68.96 292.219 68.48V58.88L283.579 59.6C281.339 59.76 279.499 60.24 278.059 61.04C276.619 61.84 275.899 63.04 275.899 64.64C275.899 66.24 276.499 67.56 277.699 68.6C278.979 69.56 281.099 70.04 284.059 70.04ZM283.099 22.88C287.419 22.88 291.339 23.32 294.859 24.2C298.459 25.08 301.499 26.44 303.979 28.28C306.539 30.04 308.499 32.32 309.859 35.12C311.219 37.84 311.899 41.08 311.899 44.84V71.72C311.899 73.8 311.299 75.52 310.099 76.88C308.979 78.16 307.619 79.28 306.019 80.24C300.819 83.36 293.499 84.92 284.059 84.92C279.819 84.92 275.979 84.52 272.539 83.72C269.179 82.92 266.259 81.72 263.779 80.12C261.379 78.52 259.499 76.48 258.139 74C256.859 71.52 256.219 68.64 256.219 65.36C256.219 59.84 257.859 55.6 261.139 52.64C264.419 49.68 269.499 47.84 276.379 47.12L292.099 45.44V44.6C292.099 42.28 291.059 40.64 288.979 39.68C286.979 38.64 284.059 38.12 280.219 38.12C277.179 38.12 274.219 38.44 271.339 39.08C268.459 39.72 265.859 40.52 263.539 41.48C262.499 40.76 261.619 39.68 260.899 38.24C260.179 36.72 259.819 35.16 259.819 33.56C259.819 31.48 260.299 29.84 261.259 28.64C262.299 27.36 263.859 26.28 265.939 25.4C268.259 24.52 270.979 23.88 274.099 23.48C277.299 23.08 280.299 22.88 283.099 22.88ZM373.573 65.6C373.573 71.68 371.293 76.44 366.733 79.88C362.173 83.32 355.453 85.04 346.573 85.04C343.213 85.04 340.093 84.8 337.213 84.32C334.333 83.84 331.853 83.12 329.773 82.16C327.773 81.12 326.173 79.84 324.973 78.32C323.853 76.8 323.293 75 323.293 72.92C323.293 71 323.693 69.4 324.493 68.12C325.293 66.76 326.253 65.64 327.373 64.76C329.693 66.04 332.333 67.2 335.293 68.24C338.333 69.2 341.813 69.68 345.733 69.68C348.213 69.68 350.093 69.32 351.373 68.6C352.733 67.88 353.413 66.92 353.413 65.72C353.413 64.6 352.933 63.72 351.973 63.08C351.013 62.44 349.413 61.92 347.173 61.52L343.573 60.8C336.613 59.44 331.413 57.32 327.973 54.44C324.613 51.48 322.933 47.28 322.933 41.84C322.933 38.88 323.573 36.2 324.853 33.8C326.133 31.4 327.933 29.4 330.253 27.8C332.573 26.2 335.333 24.96 338.533 24.08C341.813 23.2 345.413 22.76 349.333 22.76C352.293 22.76 355.053 23 357.613 23.48C360.253 23.88 362.533 24.52 364.453 25.4C366.373 26.28 367.893 27.44 369.013 28.88C370.133 30.24 370.693 31.88 370.693 33.8C370.693 35.64 370.333 37.24 369.613 38.6C368.973 39.88 368.133 40.96 367.093 41.84C366.453 41.44 365.493 41.04 364.213 40.64C362.933 40.16 361.533 39.76 360.013 39.44C358.493 39.04 356.933 38.72 355.333 38.48C353.813 38.24 352.413 38.12 351.133 38.12C348.493 38.12 346.453 38.44 345.013 39.08C343.573 39.64 342.853 40.56 342.853 41.84C342.853 42.72 343.253 43.44 344.053 44C344.853 44.56 346.373 45.08 348.613 45.56L352.333 46.4C360.013 48.16 365.453 50.6 368.653 53.72C371.933 56.76 373.573 60.72 373.573 65.6ZM390.798 68.12C389.918 66.12 388.958 63.88 387.918 61.4C386.958 58.92 385.918 56.08 384.798 52.88C383.758 49.68 382.638 46.04 381.438 41.96C380.318 37.8 379.118 33.04 377.838 27.68C378.958 26.56 380.438 25.6 382.278 24.8C384.198 23.92 386.278 23.48 388.518 23.48C391.318 23.48 393.638 24.08 395.478 25.28C397.318 26.4 398.678 28.56 399.558 31.76L409.038 64.76H409.518C410.478 62.04 411.398 59.08 412.278 55.88C413.238 52.68 414.158 49.4 415.038 46.04C415.918 42.6 416.718 39.2 417.438 35.84C418.238 32.4 418.918 29.04 419.478 25.76C422.358 24.24 425.518 23.48 428.958 23.48C431.758 23.48 434.078 24.08 435.918 25.28C437.758 26.48 438.678 28.56 438.678 31.52C438.678 33.68 438.398 36.2 437.838 39.08C437.278 41.88 436.518 44.88 435.558 48.08C434.678 51.28 433.598 54.6 432.318 58.04C431.118 61.4 429.838 64.72 428.478 68C427.118 71.28 425.718 74.4 424.278 77.36C422.838 80.24 421.438 82.84 420.078 85.16C417.838 89.08 415.758 92.28 413.838 94.76C411.918 97.24 410.078 99.16 408.318 100.52C406.558 101.96 404.798 102.92 403.038 103.4C401.278 103.96 399.438 104.24 397.518 104.24C394.158 104.24 391.438 103.24 389.358 101.24C387.278 99.24 386.038 96.64 385.638 93.44C388.198 91.44 390.758 89.2 393.318 86.72C395.878 84.32 398.198 81.84 400.278 79.28C398.918 78.88 397.438 77.96 395.838 76.52C394.318 75 392.638 72.2 390.798 68.12ZM192.76 111.48C192.76 108.44 193.76 105.88 195.76 103.8C197.84 101.72 200.56 100.68 203.92 100.68C207.28 100.68 209.96 101.72 211.96 103.8C214.04 105.88 215.08 108.44 215.08 111.48C215.08 114.52 214.04 117.08 211.96 119.16C209.96 121.24 207.28 122.28 203.92 122.28C200.56 122.28 197.84 121.24 195.76 119.16C193.76 117.08 192.76 114.52 192.76 111.48ZM214.12 185.88C213.24 186.04 211.92 186.24 210.16 186.48C208.48 186.8 206.76 186.96 205 186.96C203.24 186.96 201.64 186.84 200.2 186.6C198.84 186.36 197.68 185.88 196.72 185.16C195.76 184.44 195 183.48 194.44 182.28C193.96 181 193.72 179.36 193.72 177.36V128.52C194.6 128.36 195.88 128.16 197.56 127.92C199.32 127.6 201.08 127.44 202.84 127.44C204.6 127.44 206.16 127.56 207.52 127.8C208.96 128.04 210.16 128.52 211.12 129.24C212.08 129.96 212.8 130.96 213.28 132.24C213.84 133.44 214.12 135.04 214.12 137.04V185.88ZM264.067 149.04C264.067 146.56 263.347 144.76 261.907 143.64C260.547 142.44 258.667 141.84 256.267 141.84C254.667 141.84 253.067 142.04 251.467 142.44C249.947 142.84 248.627 143.44 247.507 144.24V185.88C246.707 186.12 245.427 186.36 243.667 186.6C241.987 186.84 240.227 186.96 238.387 186.96C236.627 186.96 235.027 186.84 233.587 186.6C232.227 186.36 231.067 185.88 230.107 185.16C229.147 184.44 228.387 183.48 227.827 182.28C227.347 181 227.107 179.36 227.107 177.36V141.36C227.107 139.2 227.547 137.44 228.427 136.08C229.387 134.72 230.667 133.48 232.267 132.36C234.987 130.44 238.387 128.88 242.467 127.68C246.627 126.48 251.227 125.88 256.267 125.88C265.307 125.88 272.267 127.88 277.147 131.88C282.027 135.8 284.467 141.28 284.467 148.32V185.88C283.667 186.12 282.387 186.36 280.627 186.6C278.947 186.84 277.187 186.96 275.347 186.96C273.587 186.96 271.987 186.84 270.547 186.6C269.187 186.36 268.027 185.88 267.067 185.16C266.107 184.44 265.347 183.48 264.787 182.28C264.307 181 264.067 179.36 264.067 177.36V149.04ZM334.545 184.44C333.425 185.32 331.785 186.04 329.625 186.6C327.465 187.16 325.025 187.44 322.305 187.44C319.185 187.44 316.465 187.04 314.145 186.24C311.905 185.44 310.345 184.16 309.465 182.4C308.745 181.04 307.865 179.16 306.825 176.76C305.865 174.28 304.825 171.56 303.705 168.6C302.585 165.56 301.425 162.32 300.225 158.88C299.025 155.44 297.865 152.04 296.745 148.68C295.705 145.32 294.745 142.08 293.865 138.96C292.985 135.84 292.265 133.08 291.705 130.68C292.825 129.56 294.305 128.6 296.145 127.8C298.065 126.92 300.145 126.48 302.385 126.48C305.185 126.48 307.465 127.08 309.225 128.28C311.065 129.4 312.425 131.56 313.305 134.76L317.985 153.12C318.865 156.72 319.705 160 320.505 162.96C321.305 165.84 321.905 168.08 322.305 169.68H322.905C324.425 163.76 326.025 157.2 327.705 150C329.385 142.8 330.905 135.72 332.265 128.76C333.625 128.04 335.145 127.48 336.825 127.08C338.585 126.68 340.265 126.48 341.865 126.48C344.665 126.48 347.025 127.08 348.945 128.28C350.865 129.48 351.825 131.56 351.825 134.52C351.825 135.8 351.505 137.68 350.865 140.16C350.305 142.56 349.545 145.32 348.585 148.44C347.705 151.48 346.625 154.72 345.345 158.16C344.145 161.6 342.905 164.96 341.625 168.24C340.345 171.52 339.065 174.6 337.785 177.48C336.585 180.28 335.505 182.6 334.545 184.44ZM391.189 187.92C386.469 187.92 382.069 187.28 377.989 186C373.989 184.64 370.469 182.64 367.429 180C364.469 177.36 362.109 174.04 360.349 170.04C358.669 166.04 357.829 161.36 357.829 156C357.829 150.72 358.669 146.2 360.349 142.44C362.109 138.6 364.389 135.48 367.189 133.08C369.989 130.6 373.189 128.8 376.789 127.68C380.389 126.48 384.069 125.88 387.829 125.88C392.069 125.88 395.909 126.52 399.349 127.8C402.869 129.08 405.869 130.84 408.349 133.08C410.909 135.32 412.869 138 414.229 141.12C415.669 144.24 416.389 147.64 416.389 151.32C416.389 154.04 415.629 156.12 414.109 157.56C412.589 159 410.469 159.92 407.749 160.32L378.109 164.76C378.989 167.4 380.789 169.4 383.509 170.76C386.229 172.04 389.349 172.68 392.869 172.68C396.149 172.68 399.229 172.28 402.109 171.48C405.069 170.6 407.469 169.6 409.309 168.48C410.589 169.28 411.669 170.4 412.549 171.84C413.429 173.28 413.869 174.8 413.869 176.4C413.869 180 412.189 182.68 408.829 184.44C406.269 185.8 403.389 186.72 400.189 187.2C396.989 187.68 393.989 187.92 391.189 187.92ZM387.829 140.76C385.909 140.76 384.229 141.08 382.789 141.72C381.429 142.36 380.309 143.2 379.429 144.24C378.549 145.2 377.869 146.32 377.389 147.6C376.989 148.8 376.749 150.04 376.669 151.32L397.189 147.96C396.949 146.36 396.069 144.76 394.549 143.16C393.029 141.56 390.789 140.76 387.829 140.76ZM463.169 149.04C463.169 146.56 462.449 144.76 461.009 143.64C459.649 142.44 457.769 141.84 455.369 141.84C453.769 141.84 452.169 142.04 450.569 142.44C449.049 142.84 447.729 143.44 446.609 144.24V185.88C445.809 186.12 444.529 186.36 442.769 186.6C441.089 186.84 439.329 186.96 437.489 186.96C435.729 186.96 434.129 186.84 432.689 186.6C431.329 186.36 430.169 185.88 429.209 185.16C428.249 184.44 427.489 183.48 426.929 182.28C426.449 181 426.209 179.36 426.209 177.36V141.36C426.209 139.2 426.649 137.44 427.529 136.08C428.489 134.72 429.769 133.48 431.369 132.36C434.089 130.44 437.489 128.88 441.569 127.68C445.729 126.48 450.329 125.88 455.369 125.88C464.409 125.88 471.369 127.88 476.249 131.88C481.129 135.8 483.569 141.28 483.569 148.32V185.88C482.769 186.12 481.489 186.36 479.729 186.6C478.049 186.84 476.289 186.96 474.449 186.96C472.689 186.96 471.089 186.84 469.649 186.6C468.289 186.36 467.129 185.88 466.169 185.16C465.209 184.44 464.449 183.48 463.889 182.28C463.409 181 463.169 179.36 463.169 177.36V149.04ZM516.57 165.96C516.57 168.04 517.21 169.52 518.49 170.4C519.85 171.28 521.73 171.72 524.13 171.72C525.33 171.72 526.57 171.64 527.85 171.48C529.13 171.24 530.25 170.96 531.21 170.64C531.93 171.52 532.53 172.52 533.01 173.64C533.57 174.68 533.85 175.96 533.85 177.48C533.85 180.52 532.69 183 530.37 184.92C528.13 186.84 524.13 187.8 518.37 187.8C511.33 187.8 505.89 186.2 502.05 183C498.29 179.8 496.41 174.6 496.41 167.4V116.04C497.29 115.8 498.53 115.56 500.13 115.32C501.81 115 503.57 114.84 505.41 114.84C508.93 114.84 511.65 115.48 513.57 116.76C515.57 117.96 516.57 120.56 516.57 124.56V132.24H532.29C532.77 133.12 533.21 134.24 533.61 135.6C534.09 136.88 534.33 138.32 534.33 139.92C534.33 142.72 533.69 144.76 532.41 146.04C531.21 147.24 529.57 147.84 527.49 147.84H516.57V165.96ZM603.873 156.84C603.873 161.8 603.113 166.24 601.593 170.16C600.073 174 597.913 177.24 595.113 179.88C592.393 182.52 589.113 184.52 585.273 185.88C581.433 187.24 577.153 187.92 572.433 187.92C567.713 187.92 563.433 187.2 559.593 185.76C555.753 184.32 552.433 182.28 549.633 179.64C546.913 176.92 544.793 173.64 543.273 169.8C541.753 165.96 540.993 161.64 540.993 156.84C540.993 152.12 541.753 147.84 543.273 144C544.793 140.16 546.913 136.92 549.633 134.28C552.433 131.56 555.753 129.48 559.593 128.04C563.433 126.6 567.713 125.88 572.433 125.88C577.153 125.88 581.433 126.64 585.273 128.16C589.113 129.6 592.393 131.68 595.113 134.4C597.913 137.04 600.073 140.28 601.593 144.12C603.113 147.96 603.873 152.2 603.873 156.84ZM561.873 156.84C561.873 161.72 562.793 165.48 564.633 168.12C566.553 170.68 569.193 171.96 572.553 171.96C575.913 171.96 578.473 170.64 580.233 168C582.073 165.36 582.993 161.64 582.993 156.84C582.993 152.04 582.073 148.36 580.233 145.8C578.393 143.16 575.793 141.84 572.433 141.84C569.073 141.84 566.473 143.16 564.633 145.8C562.793 148.36 561.873 152.04 561.873 156.84ZM634.226 185.88C633.426 186.12 632.146 186.36 630.386 186.6C628.706 186.84 626.946 186.96 625.106 186.96C623.346 186.96 621.746 186.84 620.306 186.6C618.946 186.36 617.786 185.88 616.826 185.16C615.866 184.44 615.106 183.48 614.546 182.28C614.066 181 613.826 179.36 613.826 177.36V141.36C613.826 139.52 614.146 137.96 614.786 136.68C615.506 135.32 616.506 134.12 617.786 133.08C619.066 132.04 620.626 131.12 622.466 130.32C624.386 129.44 626.426 128.68 628.586 128.04C630.746 127.4 632.986 126.92 635.306 126.6C637.626 126.2 639.946 126 642.266 126C646.106 126 649.146 126.76 651.386 128.28C653.626 129.72 654.746 132.12 654.746 135.48C654.746 136.6 654.586 137.72 654.266 138.84C653.946 139.88 653.546 140.84 653.066 141.72C651.386 141.72 649.666 141.8 647.906 141.96C646.146 142.12 644.426 142.36 642.746 142.68C641.066 143 639.466 143.36 637.946 143.76C636.506 144.08 635.266 144.48 634.226 144.96V185.88ZM674.157 171.12C673.277 169.12 672.317 166.88 671.277 164.4C670.317 161.92 669.277 159.08 668.157 155.88C667.117 152.68 665.997 149.04 664.797 144.96C663.677 140.8 662.477 136.04 661.197 130.68C662.317 129.56 663.797 128.6 665.637 127.8C667.557 126.92 669.637 126.48 671.877 126.48C674.677 126.48 676.997 127.08 678.837 128.28C680.677 129.4 682.037 131.56 682.917 134.76L692.397 167.76H692.877C693.837 165.04 694.757 162.08 695.637 158.88C696.597 155.68 697.517 152.4 698.397 149.04C699.277 145.6 700.077 142.2 700.797 138.84C701.597 135.4 702.277 132.04 702.837 128.76C705.717 127.24 708.877 126.48 712.317 126.48C715.117 126.48 717.437 127.08 719.277 128.28C721.117 129.48 722.037 131.56 722.037 134.52C722.037 136.68 721.757 139.2 721.197 142.08C720.637 144.88 719.877 147.88 718.917 151.08C718.037 154.28 716.957 157.6 715.677 161.04C714.477 164.4 713.197 167.72 711.837 171C710.477 174.28 709.077 177.4 707.637 180.36C706.197 183.24 704.797 185.84 703.437 188.16C701.197 192.08 699.117 195.28 697.197 197.76C695.277 200.24 693.437 202.16 691.677 203.52C689.917 204.96 688.157 205.92 686.397 206.4C684.637 206.96 682.797 207.24 680.877 207.24C677.517 207.24 674.797 206.24 672.717 204.24C670.637 202.24 669.397 199.64 668.997 196.44C671.557 194.44 674.117 192.2 676.677 189.72C679.237 187.32 681.557 184.84 683.637 182.28C682.277 181.88 680.797 180.96 679.197 179.52C677.677 178 675.997 175.2 674.157 171.12Z" fill="white"/>
<path d="M153.207 136.339V171.858C153.207 179.131 147.59 185.028 140.663 185.028H12.544C5.61707 185.028 0 179.131 0 171.858V37.3498C0 30.0774 5.61707 24.1802 12.544 24.1802H46.8482C53.7751 24.1802 59.3922 30.0774 59.3922 37.3498V61.4837C59.3922 68.7561 65.0093 74.6533 71.9362 74.6533H93.9796C100.907 74.6533 106.524 80.5506 106.524 87.823V109.975C106.524 117.247 112.141 123.144 119.068 123.144H140.639C147.566 123.144 153.183 129.041 153.183 136.314L153.207 136.339Z" fill="white"/>
<path d="M144.804 72.4858H126.537C120.906 72.4858 116.342 77.2782 116.342 83.19V102.368C116.342 108.28 120.906 113.072 126.537 113.072H144.804C150.435 113.072 155 108.28 155 102.368V83.19C155 77.2782 150.435 72.4858 144.804 72.4858Z" fill="white"/>
<path d="M144.804 22H126.537C120.906 22 116.342 26.7924 116.342 32.7042V51.8825C116.342 57.7942 120.906 62.5866 126.537 62.5866H144.804C150.435 62.5866 155 57.7942 155 51.8825V32.7042C155 26.7924 150.435 22 144.804 22Z" fill="white"/>
<path d="M97.6614 22H79.3942C73.7632 22 69.1985 26.7924 69.1985 32.7042V51.8825C69.1985 57.7942 73.7632 62.5866 79.3942 62.5866H97.6614C103.292 62.5866 107.857 57.7942 107.857 51.8825V32.7042C107.857 26.7924 103.292 22 97.6614 22Z" fill="white"/>
</svg>
